<svg xmlns="http://www.w3.org/2000/svg" viewBox="0 0 344 258" height="100%" width="100%"><g xmlns="http://www.w3.org/2000/svg" transform="matrix(-1 0 0 -1 344 258)"><g xmlns="http://www.w3.org/2000/svg" transform="matrix(0 1 -1 0 344 -0)"><defs /><polygon fill="lightgray" id="1" points="86.0,172.0 172.0,172.0 172.0,86.0 86.0,86.0" stroke="white" strokewidth="1" /><polygon fill="lightgray" id="2" points="0.0,0.0 86.0,86.0 172.0,86.0 86.0,0.0" stroke="white" strokewidth="1" /><polygon fill="lightgray" id="3" points="112.0,319.0 172.0,258.0 112.0,198.0" stroke="white" strokewidth="1" /><polygon fill="lightgray" id="4" points="172.0,172.0 258.0,172.0 172.0,86.0" stroke="white" strokewidth="1" /><polygon fill="lightgray" id="5" points="86.0,344.0 258.0,344.0 172.0,258.0" stroke="white" strokewidth="1" /><polygon fill="lightgray" id="6" points="258.0,172.0 86.0,0.0 258.0,0.0" stroke="white" strokewidth="1" /><polygon fill="lightgray" id="7" points="258.0,344.0 86.0,172.0 258.0,172.0" stroke="white" strokewidth="1" /></g></g></svg>